<?xml version="1.0" standalone="no"?>
<!DOCTYPE svg PUBLIC "-//W3C//DTD SVG 20010904//EN"
 "http://www.w3.org/TR/2001/REC-SVG-20010904/DTD/svg10.dtd">
<svg version="1.0" xmlns="http://www.w3.org/2000/svg"
 width="200.000000pt" height="200.000000pt" viewBox="0 0 200.000000 200.000000"
 preserveAspectRatio="xMidYMid meet">

<g transform="translate(0.000000,200.000000) scale(0.100000,-0.100000)"
fill="#000000" stroke="none">
<path d="M1087 1570 l-128 -125 51 -50 50 -49 65 64 64 64 11 -28 c23 -61 5
-148 -40 -200 -26 -29 -67 -52 -122 -70 -15 -5 -18 -18 -18 -92 l0 -87 45 6
c109 15 226 101 275 200 59 121 62 236 8 346 -23 47 -89 127 -117 140 -12 5
-50 -27 -144 -119z"/>
<path d="M83 762 l-83 -3 0 -164 0 -165 45 0 44 0 3 67 c3 64 4 68 27 68 21 0
25 5 25 35 0 31 -4 35 -27 38 -21 3 -27 9 -27 28 0 22 4 24 50 24 l50 0 0 34
c0 19 -6 35 -12 37 -7 2 -50 3 -95 1z"/>
<path d="M338 756 c-60 -21 -84 -42 -107 -89 -26 -53 -26 -90 -2 -142 34 -74
85 -105 172 -105 60 0 95 17 137 64 83 94 33 240 -93 275 -50 14 -61 13 -107
-3z m126 -107 c30 -35 32 -58 11 -99 -35 -68 -125 -68 -160 0 -22 43 -19 68
14 101 42 42 99 41 135 -2z"/>
<path d="M758 760 c-101 -31 -153 -117 -128 -209 22 -84 87 -131 182 -131 51
0 118 27 118 48 0 5 -12 20 -27 34 -25 24 -30 25 -47 12 -11 -8 -33 -14 -48
-14 -88 0 -127 115 -56 164 26 19 89 21 106 4 9 -9 19 -5 42 17 16 16 30 32
30 36 0 12 -64 38 -106 43 -21 3 -51 1 -66 -4z"/>
<path d="M1080 748 c-6 -13 -34 -88 -64 -168 l-54 -145 35 -3 c19 -2 41 -1 48
2 7 2 27 49 45 103 18 54 36 102 40 106 8 9 30 -45 30 -74 0 -12 -7 -19 -19
-19 -12 0 -23 -11 -30 -30 l-10 -30 45 0 c41 0 46 -3 55 -30 10 -27 15 -30 56
-30 52 0 55 -22 -22 190 l-53 145 -46 3 c-40 3 -47 0 -56 -20z"/>
<path d="M1347 763 c-4 -3 -7 -80 -7 -170 l0 -163 95 0 95 0 0 35 0 35 -50 0
-50 0 0 135 0 135 -38 0 c-21 0 -42 -3 -45 -7z"/>
<path d="M1580 600 l0 -170 95 0 95 0 0 35 0 35 -55 0 -55 0 0 135 0 135 -40
0 -40 0 0 -170z"/>
<path d="M1810 600 l0 -170 95 0 95 0 0 35 0 35 -50 0 c-49 0 -50 1 -50 30 0
25 4 30 25 30 23 0 25 4 25 40 0 36 -2 40 -25 40 -20 0 -25 5 -25 25 0 23 3
25 50 25 l50 0 0 40 0 40 -95 0 -95 0 0 -170z"/>
<path d="M945 306 c-23 -17 -16 -60 11 -64 26 -4 48 21 39 47 -8 25 -29 33
-50 17z m35 -31 c0 -25 -23 -35 -35 -15 -10 16 2 40 20 40 9 0 15 -9 15 -25z"/>
<path d="M1105 306 c-26 -19 -13 -66 19 -66 37 0 50 52 17 69 -13 7 -23 6 -36
-3z m43 -29 c4 -20 -25 -34 -40 -19 -15 15 -1 44 19 40 10 -2 19 -11 21 -21z"/>
<path d="M618 303 c6 -2 12 -18 12 -34 0 -38 16 -30 22 11 4 27 2 30 -21 29
-14 0 -20 -3 -13 -6z"/>
<path d="M690 275 c0 -30 3 -35 23 -34 16 1 18 2 5 6 -10 2 -18 9 -18 14 0 5
8 9 18 9 15 1 15 2 -3 12 -19 11 -19 11 0 19 19 7 18 8 -2 8 -20 1 -23 -4 -23
-34z"/>
<path d="M764 296 c-11 -28 1 -51 26 -53 25 -3 25 -3 3 7 -13 5 -23 18 -23 29
0 12 8 21 23 24 l22 4 -23 2 c-12 0 -25 -5 -28 -13z"/>
<path d="M841 273 c1 -36 2 -36 8 -9 l6 29 14 -26 c20 -38 31 -34 30 11 -1 32
-2 34 -8 12 l-7 -25 -12 23 c-19 33 -32 27 -31 -15z"/>
<path d="M1032 278 c-2 -34 1 -38 21 -37 15 1 17 3 5 6 -10 2 -18 17 -21 36
-4 31 -4 31 -5 -5z"/>
<path d="M1186 294 c-9 -25 12 -56 37 -52 25 3 37 38 13 38 -10 0 -13 -6 -9
-16 4 -12 2 -15 -8 -12 -8 2 -15 14 -17 26 -2 15 3 22 20 25 21 4 21 4 -3 6
-16 0 -29 -5 -33 -15z"/>
<path d="M1283 275 c0 -22 2 -30 4 -17 2 12 2 30 0 40 -3 9 -5 -1 -4 -23z"/>
<path d="M1327 293 c-2 -10 -8 -26 -12 -36 -7 -17 -6 -18 14 -5 18 11 23 11
31 -2 16 -25 19 -6 5 28 -15 35 -30 41 -38 15z"/>
</g>
</svg>
