<?xml version="1.0" standalone="yes"?>
<svg xmlns="http://www.w3.org/2000/svg" width="200" height="200">
<path style="fill:#fefefe; stroke:none;" d="M0 0L0 123L19 123L19 131L9 131L9 136L15 136L15 144L9 144L9 158L0 158L0 200L200 200L200 158L181 158L181 123L200 123L200 0L0 0z"/>
<path style="fill:#a6aaad; stroke:none;" d="M99 23C93.8227 23.2229 73.9185 26.2914 74.9213 34.0934C76.2426 44.3726 91.7469 48.3382 97.9722 40.2731C100.766 36.654 99 27.3999 99 23z"/>
<path style="fill:#0a92b8; stroke:none;" d="M119 54C123.127 67.022 115.994 79.8947 102 82L102 100C133.502 99.7357 155.605 50.9247 124.91 32.2068C119.092 28.6588 98.6447 48.8692 97.9213 55C97.4332 59.1364 103.845 65.084 107.91 63.6875C112.017 62.2769 115.972 56.9734 119 54z"/>
<path style="fill:#a6aaad; stroke:none;" d="M124 31L125 32L124 31M125 32L126 33L125 32M126 33L127 34L126 33M128 35L129 36L128 35M62 61C66.5613 60.7063 71.9857 61.816 76.4059 60.5185C91.3873 56.121 75.2963 25.2462 65.5178 43.0008C64.1327 45.5156 63.2049 48.2445 62.4282 51C61.4214 54.572 61.0185 57.4286 62 61M129 36L130 37L129 36M130 37L131 38L130 37M132 40L133 41L132 40M133 41L134 42L133 41M134 43L135 44L134 43M135 45L136 46L135 45M136.333 47.6667L136.667 48.3333L136.333 47.6667M137.333 50.6667L137.667 51.3333L137.333 50.6667M138 54L138 57L139 57L138 54z"/>
<path style="fill:#646565; stroke:none;" d="M96 55L97 56L96 55z"/>
<path style="fill:#a6aaad; stroke:none;" d="M119 55L120 56L119 55M96 56L97 57L96 56M97 57L98 58L97 57M98 58L99 59L98 58M120 58L120 65L121 65L120 58M99 59L100 60L99 59M100 60L101 61L100 60M111 60L112 61L111 60M101 61L102 62L101 61M102 62L103 63L102 62M61 63C61.4134 72.604 64.791 80.6963 71 88C77.0976 83.7048 90.4333 69.6591 77.6968 63.6034C73.3575 61.5403 65.7437 63 61 63M103 63L104 64L103 63M104 64L105 65L104 64M107 64L108 65L107 64M105.667 65.3333L106.333 65.6667L105.667 65.3333M138 67L138 70L139 70L138 67M119 68L120 69L119 68M118 70L119 71L118 70M117 72L118 73L117 72M137.333 72.6667L137.667 73.3333L137.333 72.6667M115 75L116 76L115 75M136 75L137 76L136 75M114 76L115 77L114 76M86 77C83.0046 79.9954 75.2068 85.3588 75.2068 89.9599C75.2068 98.0853 92.552 99.6879 98 101C102.051 87.2954 97.2476 82.9168 86 77M113 77L114 78L113 77M135 78L136 79L135 78M110 79L111 80L110 79M108 80L109 81L108 80M134 80L135 81L134 80M105 81L106 82L105 81M133 81L134 82L133 81M101 82L101 101L105 101L105 100L102 100L101 82M132 83L133 84L132 83M131 84L132 85L131 84M129 87L130 88L129 87M128 88L129 89L128 88M127 89L128 90L127 89M126 90L127 91L126 90M122 93L123 94L122 93M121 94L122 95L121 94M119 95L120 96L119 95M117 96L118 97L117 96M115 97L116 98L115 97M112 98L113 99L112 98M109 99L110 100L109 99z"/>
<path style="fill:#646565; stroke:none;" d="M0 123L0 124L19 124L0 123z"/>
<path style="fill:#a6aaad; stroke:none;" d="M35 123L36 124L35 123z"/>
<path style="fill:#646565; stroke:none;" d="M36 123L36 124L43 124L36 123z"/>
<path style="fill:#a6aaad; stroke:none;" d="M43 123L44 124L43 123M76.6667 123.333L77.3333 123.667L76.6667 123.333z"/>
<path style="fill:#646565; stroke:none;" d="M78 123L78 124L84 124L78 123z"/>
<path style="fill:#a6aaad; stroke:none;" d="M84 123L85 124L84 123M108 123L109 124L108 123z"/>
<path style="fill:#646565; stroke:none;" d="M108 124L108 125L119 125L108 124z"/>
<path style="fill:#a6aaad; stroke:none;" d="M134 123L135 124L134 123z"/>
<path style="fill:#646565; stroke:none;" d="M134 157L135 157L135 124L143 124C129.211 118.228 134 149.188 134 157z"/>
<path style="fill:#a6aaad; stroke:none;" d="M157 123L157 148L158.603 156.972L177 158L177 157L158 157L157 123z"/>
<path style="fill:#646565; stroke:none;" d="M158 123L158 124L166 124L158 123z"/>
<path style="fill:#a6aaad; stroke:none;" d="M166 123L166 150L167 150L166 123z"/>
<path style="fill:#646565; stroke:none;" d="M181 123L181 124L200 124L181 123z"/>
<path style="fill:#060606; stroke:none;" d="M0 124L0 157L8 157C8 150.997 6.61886 144.177 14 143L14 137C2.96318 135.238 13.3936 130.331 19 130L19 124L0 124z"/>
<path style="fill:#a6aaad; stroke:none;" d="M32 124L33 125L32 124z"/>
<path style="fill:#646565; stroke:none;" d="M33 124L34 125L33 124z"/>
<path style="fill:#060606; stroke:none;" d="M34 124.533C11.7636 129.938 23.0231 163.208 45 157.442C67.767 151.469 56.2217 119.132 34 124.533z"/>
<path style="fill:#646565; stroke:none;" d="M45 124L46 125L45 124z"/>
<path style="fill:#a6aaad; stroke:none;" d="M46 124L47 125L46 124M73 124L74 125L73 124z"/>
<path style="fill:#646565; stroke:none;" d="M74 124L75 125L74 124z"/>
<path style="fill:#060606; stroke:none;" d="M93 154L93 153C87.0301 147.546 81.9791 152.158 76.044 148.258C69.5242 143.973 70.4979 134.782 78.0154 132.191C84.3188 130.019 87.1443 134.277 93 129C75.6687 109.157 47.4285 145.544 73.0008 156.633C75.862 157.873 78.9155 158.094 82 157.959C86.2733 157.772 89.5159 156.372 93 154z"/>
<path style="fill:#646565; stroke:none;" d="M86 124L87 125L86 124z"/>
<path style="fill:#a6aaad; stroke:none;" d="M87 124L88 125L87 124z"/>
<path style="fill:#060606; stroke:none;" d="M96 157C108.968 156.99 109.543 144.625 113 134L117 145L112 145L111 151C116.182 151.061 119.184 151.832 121 157L130 157C127.914 149.357 121.538 119.604 110.225 124.603C107.093 125.987 106.309 130.113 105.189 133L96 157M135 124L135 157L153 157L153 150L143 150L143 124L135 124M158 124L158 157L176 157L176 150L166 150L166 124L158 124M181 124L181 157L200 157L200 150L189 149L190 144L195 144L195 137C191.02 136.346 190.197 134.719 189 131L200 131L200 124L181 124z"/>
<path style="fill:#646565; stroke:none;" d="M30 125L31 126L30 125M48 125L49 126L48 125z"/>
<path style="fill:#a6aaad; stroke:none;" d="M71 125L72 126L71 125z"/>
<path style="fill:#646565; stroke:none;" d="M89 125L90 126L89 125z"/>
<path style="fill:#a6aaad; stroke:none;" d="M107 125L108 126L107 125M28 126L29 127L28 126M50 126L51 127L50 126M69 126L70 127L69 126M91 126L92 127L91 126z"/>
<path style="fill:#646565; stroke:none;" d="M107 126L108 127L107 126z"/>
<path style="fill:#a6aaad; stroke:none;" d="M119 126L120 127L119 126z"/>
<path style="fill:#646565; stroke:none;" d="M27 127L28 128L27 127M51 127L52 128L51 127z"/>
<path style="fill:#a6aaad; stroke:none;" d="M68 127L69 128L68 127z"/>
<path style="fill:#646565; stroke:none;" d="M92 127L93 128L92 127M119 127L120 128L119 127M26 128L27 129L26 128M52 128L53 129L52 128M67 128L68 129L67 128z"/>
<path style="fill:#a6aaad; stroke:none;" d="M93 128L94 129L93 128M106 128L107 129L106 128z"/>
<path style="fill:#646565; stroke:none;" d="M25 129L26 130L25 129M53 129L54 130L53 129M66 129L67 130L66 129z"/>
<path style="fill:#a6aaad; stroke:none;" d="M92 129L93 130L92 129z"/>
<path style="fill:#646565; stroke:none;" d="M106 129L107 130L106 129z"/>
<path style="fill:#a6aaad; stroke:none;" d="M120 129L121 130L120 129z"/>
<path style="fill:#646565; stroke:none;" d="M9 130L9 131L13 131L9 130M14 130L14 131L19 131L14 130z"/>
<path style="fill:#a6aaad; stroke:none;" d="M24 130L25 131L24 130z"/>
<path style="fill:#646565; stroke:none;" d="M54 130L55 131L54 130z"/>
<path style="fill:#a6aaad; stroke:none;" d="M65 130L66 131L65 130M91 130L92 131L91 130z"/>
<path style="fill:#646565; stroke:none;" d="M120 130L121 131L120 130M8 131L8 136L9 136L8 131z"/>
<path style="fill:#a6aaad; stroke:none;" d="M23 131L24 132L23 131z"/>
<path style="fill:#646565; stroke:none;" d="M38 131L38 132L41 132L38 131z"/>
<path style="fill:#a6aaad; stroke:none;" d="M55 131L56 132L55 131z"/>
<path style="fill:#646565; stroke:none;" d="M79 131L79 132L83 132L79 131z"/>
<path style="fill:#a6aaad; stroke:none;" d="M90 131L91 132L90 131M105 131L106 132L105 131z"/>
<path style="fill:#646565; stroke:none;" d="M189 131L190 132L189 131z"/>
<path style="fill:#fefefe; stroke:none;" d="M190 131L190 136L196 136L196 144L190 144L190 149L200 149L200 131L190 131z"/>
<path style="fill:#646565; stroke:none;" d="M23 132L24 133L23 132M35 132L36 133L35 132z"/>
<path style="fill:#fefefe; stroke:none;" d="M36.044 132.743C26.0111 136.775 32.7421 153.338 42.9059 148.987C53.2735 144.549 46.7547 128.439 36.044 132.743z"/>
<path style="fill:#646565; stroke:none;" d="M43 132L44 133L43 132M64 132L65 133L64 132M76 132L77 133L76 132z"/>
<path style="fill:#a6aaad; stroke:none;" d="M84 132L85 133L84 132M89 132L90 133L89 132z"/>
<path style="fill:#646565; stroke:none;" d="M105 132L106 133L105 132z"/>
<path style="fill:#a6aaad; stroke:none;" d="M121 132L122 133L121 132M22 133L23 134L22 133z"/>
<path style="fill:#646565; stroke:none;" d="M33 133L34 134L33 133M45 133L46 134L45 133z"/>
<path style="fill:#a6aaad; stroke:none;" d="M56 133L57 134L56 133M63 133L64 134L63 133z"/>
<path style="fill:#646565; stroke:none;" d="M74 133L75 134L74 133M86 133L87 134L86 133z"/>
<path style="fill:#a6aaad; stroke:none;" d="M88 133L89 134L88 133M104 133L105 134L104 133z"/>
<path style="fill:#646565; stroke:none;" d="M121 133L122 134L121 133M189.333 133.667L189.667 134.333L189.333 133.667M22 134L23 135L22 134M32 134L33 135L32 134M46 134L47 135L46 134M63 134L64 135L63 134M73 134L74 135L73 134z"/>
<path style="fill:#a6aaad; stroke:none;" d="M87 134L88 135L87 134z"/>
<path style="fill:#646565; stroke:none;" d="M104 134L105 135L104 134M113 134L114 135L113 134z"/>
<path style="fill:#a6aaad; stroke:none;" d="M122 134L123 135L122 134z"/>
<path style="fill:#646565; stroke:none;" d="M47 135L48 136L47 135M112 135L113 136L112 135M122 135L123 136L122 135M9 136L9 137L14 139C14.4878 136.041 11.4844 136.118 9 136z"/>
<path style="fill:#a6aaad; stroke:none;" d="M14 136L15 137L14 136M21 136L22 137L21 136M31 136L32 137L31 136M57 136L58 137L57 136M62.3333 136.667L62.6667 137.333L62.3333 136.667M72 136L73 137L72 136M103 136L104 137L103 136M112 136L113 137L112 136z"/>
<path style="fill:#646565; stroke:none;" d="M114.333 136.667L114.667 137.333L114.333 136.667M190 136L190 137L195 137L190 136z"/>
<path style="fill:#a6aaad; stroke:none;" d="M195 136L195 144L196 144L195 136z"/>
<path style="fill:#646565; stroke:none;" d="M21 137L21 144L22 144L21 137M30 137L31 138L30 137M48 137L49 138L48 137M57.3333 137.667L57.6667 138.333L57.3333 137.667M103 137L104 138L103 137z"/>
<path style="fill:#a6aaad; stroke:none;" d="M123 137L124 138L123 137M30 138L30 143L31 143L30 138M48.3333 138.667L48.6667 139.333L48.3333 138.667z"/>
<path style="fill:#646565; stroke:none;" d="M62 138L62 143L63 143L62 138M71 138L72 139L71 138M111 138L112 139L111 138M123 138L124 139L123 138z"/>
<path style="fill:#a6aaad; stroke:none;" d="M14 139L15 140L14 139M71 139L71 142L72 142L71 139M102 139L103 140L102 139M111 139L112 140L111 139z"/>
<path style="fill:#646565; stroke:none;" d="M14 140L9 143L9 144C11.9398 143.773 14.7771 143.454 14 140M115 140L116 141L115 140z"/>
<path style="fill:#a6aaad; stroke:none;" d="M124 140L125 141L124 140M48.3333 141.667L48.6667 142.333L48.3333 141.667z"/>
<path style="fill:#646565; stroke:none;" d="M110 141L111 142L110 141M124 141L125 142L124 141M57.3333 142.667L57.6667 143.333L57.3333 142.667M71.3333 142.667L71.6667 143.333L71.3333 142.667M101 142L102 143L101 142z"/>
<path style="fill:#a6aaad; stroke:none;" d="M110 142L111 143L110 142M14 143L15 144L14 143z"/>
<path style="fill:#646565; stroke:none;" d="M30 143L31 144L30 143M48 143L49 144L48 143z"/>
<path style="fill:#a6aaad; stroke:none;" d="M62.3333 143.667L62.6667 144.333L62.3333 143.667z"/>
<path style="fill:#646565; stroke:none;" d="M116.333 143.667L116.667 144.333L116.333 143.667z"/>
<path style="fill:#a6aaad; stroke:none;" d="M125 143L126 144L125 143z"/>
<path style="fill:#646565; stroke:none;" d="M8 144L8 157L9 157L8 144z"/>
<path style="fill:#a6aaad; stroke:none;" d="M21 144L22 145L21 144M57.3333 144.667L57.6667 145.333L57.3333 144.667M72 144L73 145L72 144M100 144L101 145L100 144z"/>
<path style="fill:#646565; stroke:none;" d="M109 144L110 145L109 144z"/>
<path style="fill:#a6aaad; stroke:none;" d="M112 144L112 145L116 145L112 144z"/>
<path style="fill:#646565; stroke:none;" d="M31 145L32 146L31 145M47 145L48 146L47 145M72 145L73 146L72 145M100 145L101 146L100 145z"/>
<path style="fill:#a6aaad; stroke:none;" d="M109 145L110 146L109 145M126 145L127 146L126 145z"/>
<path style="fill:#646565; stroke:none;" d="M22 146L23 147L22 146z"/>
<path style="fill:#a6aaad; stroke:none;" d="M32 146L33 147L32 146M46 146L47 147L46 146z"/>
<path style="fill:#646565; stroke:none;" d="M63 146L64 147L63 146z"/>
<path style="fill:#a6aaad; stroke:none;" d="M73 146L74 147L73 146M111 146L112 147L111 146z"/>
<path style="fill:#646565; stroke:none;" d="M126 146L127 147L126 146z"/>
<path style="fill:#a6aaad; stroke:none;" d="M22 147L23 148L22 147M33 147L34 148L33 147z"/>
<path style="fill:#646565; stroke:none;" d="M56 147L57 148L56 147z"/>
<path style="fill:#a6aaad; stroke:none;" d="M63 147L64 148L63 147M74 147L75 148L74 147z"/>
<path style="fill:#646565; stroke:none;" d="M87 147L88 148L87 147z"/>
<path style="fill:#a6aaad; stroke:none;" d="M99 147L100 148L99 147z"/>
<path style="fill:#646565; stroke:none;" d="M108 147L109 148L108 147M111 147L112 148L111 147z"/>
<path style="fill:#a6aaad; stroke:none;" d="M34 148L35 149L34 148M44 148L45 149L44 148z"/>
<path style="fill:#646565; stroke:none;" d="M75 148L76 149L75 148z"/>
<path style="fill:#a6aaad; stroke:none;" d="M85 148L86 149L85 148z"/>
<path style="fill:#646565; stroke:none;" d="M88 148L89 149L88 148M99 148L100 149L99 148z"/>
<path style="fill:#a6aaad; stroke:none;" d="M108 148L109 149L108 148M127 148L128 149L127 148z"/>
<path style="fill:#646565; stroke:none;" d="M189 148L190 149L189 148z"/>
<path style="fill:#a6aaad; stroke:none;" d="M23 149L24 150L23 149M36 149L37 150L36 149M42 149L43 150L42 149z"/>
<path style="fill:#646565; stroke:none;" d="M55 149L56 150L55 149z"/>
<path style="fill:#a6aaad; stroke:none;" d="M64 149L65 150L64 149M77.6667 149.333L78.3333 149.667L77.6667 149.333M83 149L84 150L83 149z"/>
<path style="fill:#646565; stroke:none;" d="M84 149L85 150L84 149M89 149L90 150L89 149z"/>
<path style="fill:#a6aaad; stroke:none;" d="M110 149L111 150L110 149z"/>
<path style="fill:#646565; stroke:none;" d="M127 149L128 150L127 149z"/>
<path style="fill:#a6aaad; stroke:none;" d="M190 149L190 150L200 150L190 149z"/>
<path style="fill:#646565; stroke:none;" d="M65 150L66 151L65 150M90 150L91 151L90 150M98 150L99 151L98 150M107 150L108 151L107 150M110 150L111 151L110 150z"/>
<path style="fill:#a6aaad; stroke:none;" d="M153 150L153 157L154 157L153 150z"/>
<path style="fill:#646565; stroke:none;" d="M176 150L176 157L177 157L176 150z"/>
<path style="fill:#a6aaad; stroke:none;" d="M24 151L25 152L24 151M54 151L55 152L54 151z"/>
<path style="fill:#646565; stroke:none;" d="M91 151L92 152L91 151z"/>
<path style="fill:#a6aaad; stroke:none;" d="M107 151L108 152L107 151M110 151L110 152L119 152L110 151M128 151L129 152L128 151M25 152L26 153L25 152M53 152L54 153L53 152M66 152L67 153L66 152z"/>
<path style="fill:#646565; stroke:none;" d="M92 152L93 153L92 152z"/>
<path style="fill:#a6aaad; stroke:none;" d="M97 152L98 153L97 152M119 152L120 153L119 152z"/>
<path style="fill:#646565; stroke:none;" d="M128 152L129 153L128 152z"/>
<path style="fill:#a6aaad; stroke:none;" d="M26 153L27 154L26 153M52 153L53 154L52 153M67 153L68 154L67 153M93 153L94 154L93 153z"/>
<path style="fill:#646565; stroke:none;" d="M97 153L98 154L97 153M106 153L107 154L106 153z"/>
<path style="fill:#a6aaad; stroke:none;" d="M27 154L28 155L27 154M51 154L52 155L51 154M68 154L69 155L68 154M92 154L93 155L92 154z"/>
<path style="fill:#646565; stroke:none;" d="M120 154L121 155L120 154z"/>
<path style="fill:#a6aaad; stroke:none;" d="M129 154L130 155L129 154z"/>
<path style="fill:#646565; stroke:none;" d="M29 155L30 156L29 155M49 155L50 156L49 155M70 155L71 156L70 155z"/>
<path style="fill:#a6aaad; stroke:none;" d="M91 155L92 156L91 155M96 155L97 156L96 155z"/>
<path style="fill:#646565; stroke:none;" d="M105 155L106 156L105 155z"/>
<path style="fill:#a6aaad; stroke:none;" d="M120 155L121 156L120 155M30 156L31 157L30 156z"/>
<path style="fill:#646565; stroke:none;" d="M31 156L32 157L31 156z"/>
<path style="fill:#a6aaad; stroke:none;" d="M48 156L49 157L48 156M71 156L72 157L71 156z"/>
<path style="fill:#646565; stroke:none;" d="M72 156L73 157L72 156z"/>
<path style="fill:#a6aaad; stroke:none;" d="M89 156L90 157L89 156M105 156L106 157L105 156M130 156L131 157L130 156M0 157L0 158L9 158L0 157M32.6667 157.333L33.3333 157.667L32.6667 157.333z"/>
<path style="fill:#646565; stroke:none;" d="M45 157L46 158L45 157z"/>
<path style="fill:#a6aaad; stroke:none;" d="M46 157L47 158L46 157M74 157L75 158L74 157z"/>
<path style="fill:#646565; stroke:none;" d="M86 157L87 158L86 157z"/>
<path style="fill:#a6aaad; stroke:none;" d="M87 157L88 158L87 157M96 157L96 158L105 158L96 157M121 157L121 158L130 158L121 157M134 157L134 158L153 158L134 157M181 157L181 158L200 158L181 157M37 158L37 159L43 159L37 158M78 158L78 159L84 159L78 158M61 168L61 169L67 170L61 168M69 168L69 169L73 169L69 168z"/>
<path style="fill:#646565; stroke:none;" d="M78 168L78 170L80 170L78 168z"/>
<path style="fill:#a6aaad; stroke:none;" d="M79.6667 168.333L80.3333 168.667L79.6667 168.333M84.6667 168.333L85.3333 168.667L84.6667 168.333M89 168L90 169L89 168M93 170L96 169L93 170z"/>
<path style="fill:#646565; stroke:none;" d="M96 168L94 171L96 168z"/>
<path style="fill:#a6aaad; stroke:none;" d="M97 168L98 169L97 168M102 168L102 176L103 176L104 168L102 168M111 168L112 169L111 168z"/>
<path style="fill:#646565; stroke:none;" d="M112 168L109 170L109 171L116 171L116 170L112 168z"/>
<path style="fill:#a6aaad; stroke:none;" d="M113 168L114 169L113 168M120.667 168.333L121.333 168.667L120.667 168.333z"/>
<path style="fill:#646565; stroke:none;" d="M121 170L124 170L123 168L121 170z"/>
<path style="fill:#a6aaad; stroke:none;" d="M123 168L124 169L123 168M127.667 168.333L128.333 168.667L127.667 168.333M133 168L133 169L136 170L133 168z"/>
<path style="fill:#646565; stroke:none;" d="M61 169L61 170L63 176L65 176L66 169L61 169z"/>
<path style="fill:#060606; stroke:none;" d="M63.6667 169.333L64.3333 169.667L63.6667 169.333M69 169L69 176L73 176L73 175L70 175L69 169z"/>
<path style="fill:#646565; stroke:none;" d="M70 169L70 170L73 170L70 169z"/>
<path style="fill:#a6aaad; stroke:none;" d="M76 169L78 171L76 169z"/>
<path style="fill:#060606; stroke:none;" d="M77 169L78 170L77 169M80 169L81 170L80 169M84 169L84 176L85 176L87 172L84 169M89 169L87 173L90 176L89 169M94 169L95 170L94 169M97 169L99 171L99 169L97 169z"/>
<path style="fill:#646565; stroke:none;" d="M103 169L103 175L104 175L103 169z"/>
<path style="fill:#060606; stroke:none;" d="M110 169L111 170L110 169M114 169L115 170L114 169z"/>
<path style="fill:#646565; stroke:none;" d="M119 169L120 170L119 169z"/>
<path style="fill:#060606; stroke:none;" d="M120 169L119 171L120 169z"/>
<path style="fill:#a6aaad; stroke:none;" d="M124 169L125 170L124 169z"/>
<path style="fill:#646565; stroke:none;" d="M127 169L128 176L129 176L127 169M133 169L132 173L136 170L133 169z"/>
<path style="fill:#060606; stroke:none;" d="M134 169L135 170L134 169z"/>
<path style="fill:#a6aaad; stroke:none;" d="M70 170L73 172L73 171L70 170z"/>
<path style="fill:#060606; stroke:none;" d="M76 170L76 175L77 175L76 170z"/>
<path style="fill:#a6aaad; stroke:none;" d="M83 170L84 171L83 170z"/>
<path style="fill:#646565; stroke:none;" d="M86 170L87 171L86 170z"/>
<path style="fill:#060606; stroke:none;" d="M93 170C93.632 173.967 94.903 175.599 99 175L99 174L93 170z"/>
<path style="fill:#fefefe; stroke:none;" d="M95 170L95 175L97 175L98 170L95 170z"/>
<path style="fill:#a6aaad; stroke:none;" d="M99 170L100 171L99 170z"/>
<path style="fill:#fefefe; stroke:none;" d="M111 170L112 175L113 175L114 170L111 170z"/>
<path style="fill:#a6aaad; stroke:none;" d="M118 170L119 171L118 170M120 170L121 171L120 170z"/>
<path style="fill:#060606; stroke:none;" d="M133 170L134 171L133 170z"/>
<path style="fill:#646565; stroke:none;" d="M70 171L73 173L73 172L70 171z"/>
<path style="fill:#a6aaad; stroke:none;" d="M75 171L75 174L76 174L75 171M85 171L86 172L85 171M94 171L95 172L94 171z"/>
<path style="fill:#646565; stroke:none;" d="M98 171L98 174L100 174L100 171L98 171z"/>
<path style="fill:#060606; stroke:none;" d="M109 171C110.547 176.078 114.453 176.078 116 171L115 171C113.031 174.336 111.47 173.573 109 171z"/>
<path style="fill:#a6aaad; stroke:none;" d="M110.333 171.667L110.667 172.333L110.333 171.667M114.333 171.667L114.667 172.333L114.333 171.667z"/>
<path style="fill:#646565; stroke:none;" d="M118 171L118 174L120 171L118 171z"/>
<path style="fill:#a6aaad; stroke:none;" d="M127 171L128 172L127 171M132 171L133 172L132 171z"/>
<path style="fill:#fefefe; stroke:none;" d="M134.333 171.667L134.667 172.333L134.333 171.667z"/>
<path style="fill:#060606; stroke:none;" d="M135 171L136 172L135 171z"/>
<path style="fill:#646565; stroke:none;" d="M86.6667 172.333L87.3333 172.667L86.6667 172.333z"/>
<path style="fill:#a6aaad; stroke:none;" d="M121 172L122 173L121 172z"/>
<path style="fill:#060606; stroke:none;" d="M122.667 172.333L123.333 172.667L122.667 172.333z"/>
<path style="fill:#646565; stroke:none;" d="M124 172L123 175L124 172M135.667 172.333L136.333 172.667L135.667 172.333z"/>
<path style="fill:#a6aaad; stroke:none;" d="M70.3333 173.667L70.6667 174.333L70.3333 173.667M83.3333 173.667L83.6667 174.333L83.3333 173.667z"/>
<path style="fill:#646565; stroke:none;" d="M88 173L89 174L88 173z"/>
<path style="fill:#a6aaad; stroke:none;" d="M94 173L95 174L94 173z"/>
<path style="fill:#646565; stroke:none;" d="M110 173L111 174L110 173M114 173L115 174L114 173z"/>
<path style="fill:#060606; stroke:none;" d="M119 173L124 176L124 175L119 173z"/>
<path style="fill:#a6aaad; stroke:none;" d="M127 173L127 176L128 176L127 173z"/>
<path style="fill:#060606; stroke:none;" d="M132 173L132 174L137 175L132 173z"/>
<path style="fill:#646565; stroke:none;" d="M77.3333 174.667L77.6667 175.333L77.3333 174.667z"/>
<path style="fill:#a6aaad; stroke:none;" d="M80 174L81 175L80 174M87 174L88 175L87 174z"/>
<path style="fill:#646565; stroke:none;" d="M93 174L94 175L93 174z"/>
<path style="fill:#a6aaad; stroke:none;" d="M97 174L98 175L97 174M99 174L100 175L99 174M109 174L110 175L109 174M111 174L112 175L111 174M113 174L114 175L113 174M115 174L116 175L115 174z"/>
<path style="fill:#646565; stroke:none;" d="M120 174L121 175L120 174M131.667 174.333L132.333 174.667L131.667 174.333z"/>
<path style="fill:#a6aaad; stroke:none;" d="M137 174L138 175L137 174M73 175L74 176L73 175z"/>
<path style="fill:#060606; stroke:none;" d="M78 175L78 176L81 176L78 175z"/>
<path style="fill:#646565; stroke:none;" d="M88 175L89 176L88 175M94 175L95 176L94 175z"/>
<path style="fill:#a6aaad; stroke:none;" d="M98 175L99 176L98 175z"/>
<path style="fill:#060606; stroke:none;" d="M103 175L103 176L107 176L103 175z"/>
<path style="fill:#646565; stroke:none;" d="M110 175L111 176L110 175M114 175L115 176L114 175z"/>
<path style="fill:#a6aaad; stroke:none;" d="M119 175L120 176L119 175M124 175L125 176L124 175z"/>
<path style="fill:#060606; stroke:none;" d="M131 175L132 176L131 175z"/>
<path style="fill:#a6aaad; stroke:none;" d="M132 175L133 176L132 175z"/>
<path style="fill:#646565; stroke:none;" d="M136.667 175.333L137.333 175.667L136.667 175.333z"/>
</svg>
